# xmcd
#
# Track frame offsets:
#	150
#	20152
#	36089
#	50831
#	62873
#	78800
#	93419
#	111111
#	127058
#	140293
#	158877
#	173707
#	189646
#	205591
#	222583
#	231970
#	245527
#	259494
#	276678
#	291813
#
# Disc length: 4136 seconds
# Revision: 10
# Processed by: cddbd v1.5.2PL0 Copyright (c) Steve Scherf et al.
# Submitted via: dBpowerAMP V12.0
#
DISCID=3a102614
DTITLE=鄧麗君 - 鄧麗君極品音色 1 [dBS]
DYEAR=1997
DGENRE=Chinese Pop
TTITLE0=恰似你的溫柔
TTITLE1=月亮代表我的心
TTITLE2=海韻
TTITLE3=小城故事
TTITLE4=甜蜜蜜
TTITLE5=東山飄雨西山晴
TTITLE6=愛像一首歌
TTITLE7=再見我的愛人
TTITLE8=何日君再來
TTITLE9=初次嘗到寂寞
TTITLE10=夜來香
TTITLE11=千言萬語
TTITLE12=風從那裡來
TTITLE13=淚的小雨
TTITLE14=路邊的野花不要採
TTITLE15=一個小心願
TTITLE16=假如我是真的
TTITLE17=倩人的關懷
TTITLE18=難忘初戀的情人
TTITLE19=但願人長久
EXTD=
EXTT0=
EXTT1=
EXTT2=
EXTT3=
EXTT4=
EXTT5=
EXTT6=
EXTT7=
EXTT8=
EXTT9=
EXTT10=
EXTT11=
EXTT12=
EXTT13=
EXTT14=
EXTT15=
EXTT16=
EXTT17=
EXTT18=
EXTT19=
PLAYORDER=
